PathFileType	4	(X/Y/Z)	/Users/niels/Desktop/University/Third Semester/Perception and Action/Exam/Gymnastics Motion Tracking/Code for Gym Tracking/Analyzed Data/Webcam_Backflip/id3_2_baseline_Sports2D/id3_2_baseline_Sports2D_px_person00.trc
DataRate	CameraRate	NumFrames	NumMarkers	Units	OrigDataRate	OrigDataStartFrame	OrigNumFrames
29.8125	29.8125	10	22	m	29.8125	120	160
Frame#	Time	Hip			RHip			RKnee			RAnkle			RBigToe			RSmallToe			RHeel			LHip			LKnee			LAnkle			LBigToe			LSmallToe			LHeel			Neck			Head			Nose			RShoulder			RElbow			RWrist			LShoulder			LElbow			LWrist		
		X1	Y1	Z1	X2	Y2	Z2	X3	Y3	Z3	X4	Y4	Z4	X5	Y5	Z5	X6	Y6	Z6	X7	Y7	Z7	X8	Y8	Z8	X9	Y9	Z9	X10	Y10	Z10	X11	Y11	Z11	X12	Y12	Z12	X13	Y13	Z13	X14	Y14	Z14	X15	Y15	Z15	X16	Y16	Z16	X17	Y17	Z17	X18	Y18	Z18	X19	Y19	Z19	X20	Y20	Z20	X21	Y21	Z21	X22	Y22	Z22
120	4.025157232704402	1.700371415365128	-0.5136698433218878	0.0	1.7023639106056843	-0.5136657626315572	0.0	1.7307089248434382	-0.6255730265567688	0.0	1.7112681284721876	-0.7432101027057102	0.0	1.7630727550921754	-0.7660645162593511	0.0	1.7534586231833618	-0.771601605183609	0.0	1.7006791497532472	-0.7639302439385554	0.0	1.6950286638503778	-0.5128792793334966	0.0	1.711812786792424	-0.6244172562080031	0.0	1.7042903546108252	-0.7436357504476507	0.0	1.7592972460902487	-0.7661992851971606	0.0	1.7518323535527653	-0.7652822371183106	0.0	1.6949131302409537	-0.7631269937492156	0.0	1.7001170452646732	-0.3364505897783541	0.0	1.7172149094992606	-0.2495600668712372	0.0	1.7387481766526804	-0.30072816534309316	0.0	1.6939210764840194	-0.3570188495736084	0.0	1.6878212636810233	-0.44525258452218763	0.0	1.7354961662333532	-0.5103722853405555	0.0	1.6972108814748277	-0.35774893538749264	0.0	1.7193976694597348	-0.4388907404853898	0.0	1.7693086495527284	-0.49788088301969063	0.0
121	4.058700209643606	1.702282178060878	-0.514055983898582	0.0	1.7030097156330195	-0.5138808971272556	0.0	1.7277332449302671	-0.6262420732330588	0.0	1.7109443442003964	-0.7450393764881826	0.0	1.762407806141086	-0.766307070646236	0.0	1.7527289076607409	-0.7720617562435603	0.0	1.7010096563130468	-0.7651612802277421	0.0	1.6974172771778144	-0.5131628913843372	0.0	1.7149590705873377	-0.6243267399585082	0.0	1.705287283290852	-0.7439844024454306	0.0	1.7603117286251853	-0.7661474261156683	0.0	1.7527847377100922	-0.7653614940389295	0.0	1.695257019894783	-0.7631188369535031	0.0	1.701278810182363	-0.3360607623591539	0.0	1.718735147167451	-0.2495661634997946	0.0	1.739110952434945	-0.29975727657947265	0.0	1.6944988016259424	-0.3573092184554086	0.0	1.6885355130135702	-0.4455522750570423	0.0	1.7366273628382205	-0.510594854185783	0.0	1.6984445633820948	-0.35753928130776014	0.0	1.7160533574505847	-0.438365613655156	0.0	1.762644698703651	-0.50028824907358	0.0
122	4.092243186582809	1.7041867709493064	-0.5144904093198204	0.0	1.7037348452157706	-0.5141890820610143	0.0	1.7270136810060364	-0.6266987427479652	0.0	1.7100656685140365	-0.7461455319015988	0.0	1.7609961503896054	-0.7665325383891836	0.0	1.750768084149069	-0.7723177951387521	0.0	1.7004015786409699	-0.7656347680514397	0.0	1.6995905233982536	-0.5135365139511109	0.0	1.718065020551088	-0.6242954548224332	0.0	1.7060788625242964	-0.7439058047232943	0.0	1.7609200998631436	-0.7661629029369582	0.0	1.7530466282875246	-0.7652361243141554	0.0	1.6954171378019873	-0.762858623276771	0.0	1.7025269913960568	-0.33600916741080633	0.0	1.7207699457755563	-0.24983742081677052	0.0	1.7394352954390797	-0.2992467590293674	0.0	1.6947293543086706	-0.35790310794433483	0.0	1.6887783589938432	-0.4461064746350399	0.0	1.737433748229032	-0.5112896664752067	0.0	1.7000047768661328	-0.3576430083520472	0.0	1.7119640073591587	-0.438136101706834	0.0	1.7552624523354354	-0.5024982254405094	0.0
123	4.125786163522012	1.7060625856850256	-0.5150765496955783	0.0	1.7044256678736658	-0.5147025435209516	0.0	1.7286666182689594	-0.6267971278676785	0.0	1.7090633647158024	-0.7465682438053852	0.0	1.7595526949459108	-0.7667811628371262	0.0	1.74848519415065	-0.7724798766224571	0.0	1.6993952113530537	-0.7656105826603767	0.0	1.7016543207824397	-0.5141495666468298	0.0	1.721174392086846	-0.6243156973214712	0.0	1.7066604237429608	-0.7435162042185842	0.0	1.7612341966553178	-0.7663123950461809	0.0	1.7528822402914894	-0.7650091111201694	0.0	1.6954524051278086	-0.7624850515216143	0.0	1.7038894272228775	-0.3363594478925814	0.0	1.7231294982223286	-0.2503224641328449	0.0	1.7397604647775478	-0.2992704846359024	0.0	1.6945962919481645	-0.35877917705972395	0.0	1.6884929357523317	-0.4468048039423373	0.0	1.7377307918073661	-0.5122405330103131	0.0	1.7022233917099825	-0.35807941584190284	0.0	1.7079506347270932	-0.4381751779361278	0.0	1.74818531337374	-0.5042125021903308	0.0
124	4.159329140461216	1.707882850196758	-0.5158943852290425	0.0	1.7050079266215414	-0.5154493670406785	0.0	1.7322686152636317	-0.6265331087948913	0.0	1.7082296639657493	-0.7464197594046965	0.0	1.758596992404719	-0.7670631970427912	0.0	1.7466549266335039	-0.7726393736247261	0.0	1.6983700617734372	-0.765304003933978	0.0	1.703671249732061	-0.5150334005918784	0.0	1.7243199008681198	-0.6244172392578625	0.0	1.7070702121672465	-0.7429290925031937	0.0	1.7614260481029194	-0.7665788954336707	0.0	1.7525944288523982	-0.7647745085769679	0.0	1.695405145816571	-0.762074205985472	0.0	1.7053598494556097	-0.3370102297401187	0.0	1.725581029353916	-0.2509400083466176	0.0	1.7401742412487478	-0.299772841038561	0.0	1.6942448157502112	-0.35980194555701117	0.0	1.687717779189021	-0.44750429233636846	0.0	1.7373973142262804	-0.5131611641082908	0.0	1.7051390588866067	-0.35877675640411016	0.0	1.7049813809457262	-0.4383775780865212	0.0	1.7424212813062132	-0.505457277213502	0.0
125	4.192872117400419	1.7096204261654884	-0.5169113549621647	0.0	1.7054984431507123	-0.5163381707569024	0.0	1.7368840500865865	-0.6260342594570174	0.0	1.7077254911750017	-0.745904122250306	0.0	1.7583642214009103	-0.7673491711858861	0.0	1.7456957397815653	-0.7728498261719962	0.0	1.697543598141935	-0.7649236783672495	0.0	1.7056593447162696	-0.5160665466121942	0.0	1.727399343107545	-0.6246126540997026	0.0	1.7073777803017027	-0.7422342480481966	0.0	1.7616343578132065	-0.7668897982084112	0.0	1.7523744963481083	-0.7645921388336321	0.0	1.6953465335532243	-0.7616593159418856	0.0	1.7069166647190512	-0.3377736693920034	0.0	1.7279533297429208	-0.25159646517000483	0.0	1.7407573306086557	-0.30062009311052407	0.0	1.6939012015334092	-0.36077028049563553	0.0	1.6865778958801454	-0.4480541660164299	0.0	1.7363792139152947	-0.5138837444208026	0.0	1.7085071786575288	-0.3596192263265787	0.0	1.7036455331378901	-0.43865914353290103	0.0	1.738596853036442	-0.5064619660226005	0.0
126	4.226415094339622	1.711305104416575	-0.517995774722966	0.0	1.7059640458681908	-0.5172253926324868	0.0	1.741122460370253	-0.6254751797500191	0.0	1.7075588143326523	-0.7452835851724622	0.0	1.7587401045120117	-0.7675680297191544	0.0	1.7455337399001067	-0.7730879225432605	0.0	1.6969718381681103	-0.7646413388076944	0.0	1.7077917858795704	-0.5170752087651626	0.0	1.7304935238099042	-0.6248299588875513	0.0	1.7077251968376883	-0.7414576807332485	0.0	1.761945369567136	-0.7671208223097732	0.0	1.7523573133859396	-0.7644205739147701	0.0	1.6954536897891825	-0.7612138671219881	0.0	1.7085300084736197	-0.3384789633926428	0.0	1.7301432268419183	-0.2521757729705792	0.0	1.7414981630230513	-0.30160935524361426	0.0	1.6937145937221945	-0.3615264480344195	0.0	1.6852241054432937	-0.44831389022049817	0.0	1.7345993233996515	-0.5143640594703845	0.0	1.7119739931584055	-0.36049552450038747	0.0	1.7040128870707514	-0.43897749895485216	0.0	1.7368000287267922	-0.5074210301203762	0.0
127	4.259958071278826	1.7130545453123251	-0.5190320093812697	0.0	1.7064559060827575	-0.5180171079787014	0.0	1.7433879286674017	-0.6250400065763552	0.0	1.7076095610969524	-0.7448151804071391	0.0	1.7593701617656274	-0.7676823739581646	0.0	1.7457376399327462	-0.7732861414490463	0.0	1.6966025986681732	-0.7645786635904024	0.0	1.7105338915545918	-0.5179669373693135	0.0	1.7342164100680462	-0.6249749167410166	0.0	1.708361661405015	-0.7405666656496065	0.0	1.762426800604728	-0.767152861398514	0.0	1.7527026542131596	-0.7641240479436324	0.0	1.6960254086645277	-0.760678477915274	0.0	1.710173433573505	-0.33901190992813685	0.0	1.732056782823675	-0.2525423086893844	0.0	1.742312031597354	-0.3024928399290595	0.0	1.6936780528911715	-0.3620267369489845	0.0	1.6837618200234934	-0.448201317172789	0.0	1.731950834517949	-0.5146013190379484	0.0	1.715310799489348	-0.3613321662864092	0.0	1.7059634041933174	-0.4393219038638481	0.0	1.7368379349417802	-0.5084303730219956	0.0
128	4.293501048218029	1.7149990938274966	-0.5199830332113963	0.0	1.7069895834109812	-0.5187092930860443	0.0	1.7425011064562732	-0.6248816639343883	0.0	1.707718343459673	-0.7446797157168749	0.0	1.7598655928183011	-0.7677560091104183	0.0	1.7458058020154277	-0.7734005615415908	0.0	1.6963544224202383	-0.7648020228291882	0.0	1.714383628640384	-0.5187675602595913	0.0	1.7391841608789746	-0.625034730260975	0.0	1.7095535751015143	-0.7395615250776382	0.0	1.763124720819355	-0.7669814653220749	0.0	1.7535482904224236	-0.7635990169563387	0.0	1.6973917783549184	-0.7600550045910553	0.0	1.711828791320758	-0.3393036203641033	0.0	1.7335955741440385	-0.25259420555773515	0.0	1.743100653191359	-0.3030690961927093	0.0	1.6936718756001272	-0.3623187864389633	0.0	1.6822319195981754	-0.44773922074478456	0.0	1.7284171260085375	-0.5146317811750128	0.0	1.7185320548246736	-0.36210731005183605	0.0	1.7095114836714091	-0.4397418178753537	0.0	1.7385884873834652	-0.5096071131157814	0.0
129	4.327044025157232	1.7171355187056228	-0.5208433647264906	0.0	1.70755782760568	-0.5193443013028631	0.0	1.7385304300363333	-0.6250309183879725	0.0	1.7077923118863902	-0.7449003070421195	0.0	1.7599873054940218	-0.7679063758261119	0.0	1.7454367476049097	-0.7734309524999428	0.0	1.696180398829244	-0.7652694930444988	0.0	1.7193707476209807	-0.5195573877358717	0.0	1.7448504223324806	-0.625083255913277	0.0	1.7113655471233016	-0.7385770595760779	0.0	1.7639961024321418	-0.7667451185297427	0.0	1.7548858462656374	-0.7629062397850103	0.0	1.6996657100886663	-0.7594613851685098	0.0	1.7134823668761134	-0.3393199153767355	0.0	1.734720446726265	-0.25233072135130924	0.0	1.7437696151192306	-0.3032548468520949	0.0	1.693527766953421	-0.3624689640577232	0.0	1.6806190117350897	-0.4470472993900003	0.0	1.7241789098548834	-0.5145431122129016	0.0	1.7218467160769502	-0.3628353742822146	0.0	1.7148188980622976	-0.4403672868645868	0.0	1.7420837047479425	-0.5111084576365605	0.0
